<?xml version="1.0" encoding="utf-8"?>
<!-- Generator: Adobe Illustrator 16.0.0, SVG Export Plug-In . SVG Version: 6.00 Build 0)  -->
<!DOCTYPE svg PUBLIC "-//W3C//DTD SVG 1.1//EN" "http://www.w3.org/Graphics/SVG/1.1/DTD/svg11.dtd">
<svg version="1.1" id="Layer_1" xmlns="http://www.w3.org/2000/svg" xmlns:xlink="http://www.w3.org/1999/xlink" x="0px" y="0px"
	 width="600px" height="600px" viewBox="0 0 600 600" enable-background="new 0 0 600 600" xml:space="preserve">
<path id="XMLID_7_" fill="#FFFFFF" stroke="#332C14" stroke-miterlimit="10" d="M23.602,302.559
	c0-14.786,4.834-27.014,14.218-36.682c9.384-9.384,21.611-14.218,36.683-14.218c14.787,0,26.73,4.834,35.545,14.218
	c8.815,9.384,13.365,21.611,13.365,36.682v10.238H53.175c0.569,5.402,3.128,9.668,7.109,12.795
	c3.981,3.129,8.815,4.551,14.218,4.551c9.384,0,17.915-2.844,25.308-8.247l16.208,16.209c-7.394,10.237-21.327,15.355-41.801,15.355
	c-14.787,0-27.014-4.835-36.682-14.218C28.436,329.857,23.602,317.631,23.602,302.559z M88.72,279.811
	c-3.981-3.128-8.815-4.55-14.218-4.55s-10.237,1.422-14.218,4.55c-3.981,3.128-5.971,7.393-5.971,12.796h40.663
	C94.976,286.919,92.986,282.654,88.72,279.811z"/>
<path id="XMLID_10_" fill="#FFFFFF" stroke="#332C14" stroke-miterlimit="10" d="M155.83,340.664
	c-10.237-8.531-15.355-19.621-15.355-32.986v-10.237c0-13.649,5.118-24.455,15.355-32.986c10.237-8.531,22.18-12.796,35.829-12.796
	c16.208,0,29.858,5.688,40.664,17.346l-20.474,15.355c-5.971-5.972-12.796-9.1-20.474-9.1c-6.825,0-12.796,2.844-17.915,8.247
	c-5.119,5.403-7.678,11.943-7.678,19.336c0,7.393,2.275,13.934,7.109,19.336c4.834,5.403,10.806,8.247,18.199,8.247
	c7.394,0,14.218-3.128,20.474-9.1l20.474,15.355c-10.806,11.659-24.455,17.346-40.664,17.346
	C178.009,353.46,166.066,349.194,155.83,340.664z"/>
<path id="XMLID_12_" fill="#FFFFFF" stroke="#332C14" stroke-miterlimit="10" d="M280.948,284.645v68.815h-28.436V200.758h28.436v60
	c6.825-5.972,15.071-9.1,24.455-9.1c12.797,0,22.749,3.981,29.574,11.659c6.824,7.678,10.236,16.777,10.236,27.015v63.128h-28.436
	v-56.019c0-6.825-1.706-11.943-5.118-15.64c-3.413-3.696-8.531-5.687-15.356-5.971C290.332,276.114,285.213,279.242,280.948,284.645
	z"/>
<path id="XMLID_4_" fill="#FFFFFF" stroke="#332C14" stroke-miterlimit="10" d="M436.493,302.559c0,5.973-1.422,11.375-4.266,15.641
	l17.63,18.768c8.531-9.384,12.797-21.043,12.797-34.691c0-13.65-4.266-25.309-13.081-34.977l-18.768,17.63
	C434.502,290.047,436.493,295.734,436.493,302.559z"/>
<path id="XMLID_14_" fill="#FFFFFF" stroke="#332C14" stroke-miterlimit="10" d="M417.156,329.005
	c-2.274,0.568-4.55,0.853-6.824,0.853c-7.678,0-13.934-2.559-18.768-7.678c-4.835-5.118-7.109-11.658-7.109-19.336
	s2.274-14.218,7.109-19.336c4.834-5.119,11.09-7.962,18.768-7.962c1.422,0,2.844,0,4.266,0.285l20.474-19.336
	c-7.394-3.697-15.355-5.688-24.739-5.688c-14.787,0-27.015,4.834-36.967,14.787c-9.953,9.953-14.787,22.18-14.787,36.966
	c0,14.787,4.834,27.015,14.787,36.967c9.952,9.953,22.18,14.787,36.967,14.787c9.384,0,17.63-1.99,25.023-5.971L417.156,329.005z"/>
<g id="XMLID_5_">
	<path id="XMLID_3_" fill="#FFFFFF" stroke="#332C14" stroke-miterlimit="10" d="M485.972,379.053l-20.474-19.621
		c23.033-23.887,31.279-49.764,24.17-76.493c-5.402-21.043-18.483-35.261-18.483-35.261l20.759-19.336
		C492.512,228.91,559.905,302.559,485.972,379.053z"/>
</g>
<path id="XMLID_2_" fill="#FFFFFF" stroke="#332C14" stroke-miterlimit="10" d="M536.019,188.247l-21.042,19.336
	c13.08,17.062,35.829,52.606,35.261,94.976c-0.285,33.271-14.787,65.119-43.223,94.408l19.62,20.474
	c34.123-34.976,51.754-73.649,52.038-114.882C579.242,249.953,551.659,207.583,536.019,188.247z"/>
</svg>
