<?xml version="1.0" encoding="utf-8"?>
<!-- Generator: Adobe Illustrator 19.0.0, SVG Export Plug-In . SVG Version: 6.00 Build 0)  -->
<svg version="1.2" baseProfile="tiny" id="Layer_1" xmlns="http://www.w3.org/2000/svg" xmlns:xlink="http://www.w3.org/1999/xlink"
	 x="0px" y="0px" viewBox="0 0 211 92" xml:space="preserve">
<path id="XMLID_7_" fill="#332C14" d="M8.3,46.9c0-5.2,1.7-9.5,5-12.9c3.3-3.3,7.6-5,12.9-5c5.2,0,9.4,1.7,12.5,5
	c3.1,3.3,4.7,7.6,4.7,12.9v3.6H18.7c0.2,1.9,1.1,3.4,2.5,4.5c1.4,1.1,3.1,1.6,5,1.6c3.3,0,6.3-1,8.9-2.9l5.7,5.7
	c-2.6,3.6-7.5,5.4-14.7,5.4c-5.2,0-9.5-1.7-12.9-5C10,56.5,8.3,52.2,8.3,46.9z M31.2,38.9c-1.4-1.1-3.1-1.6-5-1.6
	c-1.9,0-3.6,0.5-5,1.6c-1.4,1.1-2.1,2.6-2.1,4.5h14.3C33.4,41.4,32.7,39.9,31.2,38.9z"/>
<path id="XMLID_10_" fill="#332C14" d="M54.8,60.3c-3.6-3-5.4-6.9-5.4-11.6v-3.6c0-4.8,1.8-8.6,5.4-11.6c3.6-3,7.8-4.5,12.6-4.5
	c5.7,0,10.5,2,14.3,6.1l-7.2,5.4c-2.1-2.1-4.5-3.2-7.2-3.2c-2.4,0-4.5,1-6.3,2.9c-1.8,1.9-2.7,4.2-2.7,6.8s0.8,4.9,2.5,6.8
	c1.7,1.9,3.8,2.9,6.4,2.9s5-1.1,7.2-3.2l7.2,5.4c-3.8,4.1-8.6,6.1-14.3,6.1C62.6,64.8,58.4,63.3,54.8,60.3z"/>
<path id="XMLID_12_" fill="#332C14" d="M98.8,40.6v24.2h-10V11.1h10v21.1c2.4-2.1,5.3-3.2,8.6-3.2c4.5,0,8,1.4,10.4,4.1
	c2.4,2.7,3.6,5.9,3.6,9.5v22.2h-10V45.1c0-2.4-0.6-4.2-1.8-5.5c-1.2-1.3-3-2-5.4-2.1C102.1,37.6,100.3,38.7,98.8,40.6z"/>
<path id="XMLID_4_" fill="#332C14" d="M153.5,46.9c0,2.1-0.5,4-1.5,5.5l6.2,6.6c3-3.3,4.5-7.4,4.5-12.2c0-4.8-1.5-8.9-4.6-12.3
	l-6.6,6.2C152.8,42.5,153.5,44.5,153.5,46.9z"/>
<path id="XMLID_14_" fill="#332C14" d="M146.7,56.2c-0.8,0.2-1.6,0.3-2.4,0.3c-2.7,0-4.9-0.9-6.6-2.7c-1.7-1.8-2.5-4.1-2.5-6.8
	s0.8-5,2.5-6.8c1.7-1.8,3.9-2.8,6.6-2.8c0.5,0,1,0,1.5,0.1l7.2-6.8c-2.6-1.3-5.4-2-8.7-2c-5.2,0-9.5,1.7-13,5.2
	c-3.5,3.5-5.2,7.8-5.2,13c0,5.2,1.7,9.5,5.2,13c3.5,3.5,7.8,5.2,13,5.2c3.3,0,6.2-0.7,8.8-2.1L146.7,56.2z"/>
<g id="XMLID_5_">
	<path id="XMLID_3_" fill="#332C14" d="M170.9,73.8l-7.2-6.9c8.1-8.4,11-17.5,8.5-26.9c-1.9-7.4-6.5-12.4-6.5-12.4l7.3-6.8
		C173.2,21,196.9,46.9,170.9,73.8z"/>
</g>
<path id="XMLID_2_" fill="#332C14" d="M188.5,6.7l-7.4,6.8c4.6,6,12.6,18.5,12.4,33.4c-0.1,11.7-5.2,22.9-15.2,33.2l6.9,7.2
	c12-12.3,18.2-25.9,18.3-40.4C203.7,28.4,194,13.5,188.5,6.7z"/>
</svg>
